<?xml version="1.0" standalone="no"?>
<!DOCTYPE svg PUBLIC "-//W3C//DTD SVG 20010904//EN"
 "http://www.w3.org/TR/2001/REC-SVG-20010904/DTD/svg10.dtd">
<svg version="1.0" xmlns="http://www.w3.org/2000/svg"
 width="949.000000pt" height="949.000000pt" viewBox="0 0 949.000000 949.000000"
 preserveAspectRatio="xMidYMid meet">
<metadata>
Created by potrace 1.14, written by Peter Selinger 2001-2017
</metadata>
<g transform="translate(0.000000,949.000000) scale(0.100000,-0.100000)"
fill="#000000" stroke="none">
<path d="M6489 7441 c-42 -13 -84 -49 -109 -92 l-22 -40 0 -1717 c0 -944 3
-1745 6 -1779 3 -35 9 -90 12 -124 3 -33 7 -70 10 -82 2 -12 6 -41 9 -64 6
-54 40 -200 66 -282 103 -335 315 -653 544 -815 146 -104 271 -147 435 -152
198 -5 336 31 509 134 92 55 98 60 190 152 108 107 207 259 278 430 8 18 11
-57 11 -276 0 -260 2 -306 17 -337 34 -73 120 -118 198 -103 38 7 98 52 120
90 9 16 13 552 17 2351 l5 2329 250 1 c285 1 305 6 353 78 22 34 27 51 26 103
0 52 -5 68 -28 98 -55 72 -46 71 -485 73 -318 1 -400 4 -430 16 -40 17 -123
16 -144 -1 -8 -7 -82 -12 -205 -13 -213 -2 -246 -10 -295 -68 -71 -85 -46
-204 56 -262 39 -22 53 -24 189 -24 l148 0 0 -170 c1 -1692 -2 -3063 -5 -3110
-5 -57 -9 -98 -21 -205 -9 -81 -42 -223 -74 -325 -108 -336 -300 -548 -545
-599 -205 -42 -390 46 -556 266 -124 166 -242 473 -279 728 -6 41 -14 89 -17
105 -4 17 -8 824 -10 1795 -4 1726 -4 1766 -23 1805 -11 22 -34 50 -52 62 -37
25 -109 36 -149 24z"/>
<path d="M4622 7007 c-12 -6 -22 -14 -22 -19 0 -5 -4 -6 -10 -3 -5 3 -10 -1
-10 -9 0 -9 -7 -16 -15 -16 -9 0 -12 -6 -9 -15 4 -8 1 -15 -5 -15 -6 0 -10 -3
-9 -7 0 -5 -12 -35 -27 -68 -16 -33 -29 -64 -30 -70 -3 -25 -38 -131 -47 -142
-7 -9 -7 -13 1 -13 8 0 7 -9 -3 -28 -8 -16 -17 -40 -19 -53 -2 -13 -8 -42 -15
-64 -10 -39 -28 -125 -36 -175 -2 -14 -7 -32 -10 -40 -7 -17 -16 -73 -19 -112
-1 -16 -5 -28 -8 -28 -3 0 -5 -10 -5 -22 1 -13 0 -27 -3 -33 -8 -14 -9 -21
-25 -115 -8 -47 -20 -110 -25 -140 -11 -54 -17 -95 -26 -155 -5 -40 -9 -58
-16 -70 -3 -5 -5 -27 -4 -47 1 -21 -2 -38 -6 -38 -7 0 -23 -114 -20 -147 1
-11 -3 -24 -8 -28 -6 -3 -11 -28 -11 -56 0 -27 -3 -49 -7 -49 -5 0 -9 -15 -9
-32 -2 -41 -12 -115 -20 -148 -5 -24 -10 -52 -17 -115 -2 -16 -7 -40 -11 -52
-4 -12 -9 -39 -11 -60 -2 -21 -8 -63 -15 -93 -6 -30 -11 -72 -11 -92 0 -20 -5
-43 -12 -50 -6 -7 -13 -31 -14 -53 -2 -61 -6 -89 -13 -100 -3 -5 -5 -28 -5
-50 0 -22 -3 -42 -7 -45 -4 -3 -10 -26 -13 -50 -3 -25 -10 -70 -16 -100 -7
-30 -12 -62 -11 -70 0 -8 -4 -29 -10 -47 -5 -18 -10 -46 -10 -63 -1 -16 -4
-30 -7 -30 -4 0 -7 -12 -7 -27 -1 -16 -4 -41 -8 -58 -4 -16 -9 -43 -12 -60 -3
-16 -7 -39 -9 -50 -3 -11 -7 -36 -10 -55 -3 -19 -8 -42 -12 -50 -8 -22 -35
-162 -34 -182 0 -10 -7 -18 -15 -18 -8 0 -13 4 -9 9 3 6 0 13 -7 18 -7 4 -21
24 -31 43 -9 19 -27 51 -39 70 -11 19 -26 44 -32 55 -6 11 -19 32 -29 47 -9
16 -25 40 -34 55 -10 16 -16 32 -15 36 1 4 -5 10 -13 13 -8 4 -15 15 -15 25 0
10 -4 19 -10 19 -5 0 -10 5 -10 10 0 10 -37 68 -51 80 -7 6 -19 37 -18 47 1 3
-6 10 -15 15 -9 5 -16 16 -16 23 0 8 -4 15 -10 15 -5 0 -10 7 -10 15 0 8 -4
15 -10 15 -5 0 -10 7 -10 15 0 8 -5 15 -12 15 -6 0 -8 3 -5 6 4 4 -4 19 -16
34 -12 15 -40 54 -62 86 -22 32 -50 68 -62 81 -13 13 -23 27 -23 31 -1 4 -25
34 -55 67 -30 33 -55 63 -55 67 0 5 -4 8 -9 8 -5 0 -28 18 -50 40 -22 22 -45
40 -50 40 -5 0 -11 3 -13 8 -4 9 -88 64 -102 66 -6 1 -17 5 -25 10 -32 20
-154 36 -194 25 -21 -6 -41 -8 -44 -5 -7 7 -113 -41 -136 -62 -11 -9 -20 -15
-22 -12 -13 20 -200 -168 -299 -300 -22 -30 -48 -60 -56 -67 -8 -7 -10 -13 -5
-13 6 0 6 -3 -1 -8 -6 -4 -28 -34 -49 -67 -22 -33 -44 -63 -50 -67 -5 -4 -7
-8 -2 -8 8 0 -50 -91 -77 -122 -9 -10 -14 -18 -11 -18 4 0 -24 -48 -102 -175
-7 -11 -16 -28 -19 -37 -3 -10 -10 -18 -15 -18 -5 0 -9 -6 -9 -14 0 -8 -7 -22
-16 -30 -8 -9 -13 -16 -9 -16 4 0 -1 -7 -9 -16 -9 -8 -16 -22 -16 -30 0 -8 -4
-14 -10 -14 -5 0 -10 -5 -10 -10 0 -6 -16 -36 -35 -66 -19 -30 -35 -59 -35
-64 0 -6 -4 -10 -10 -10 -5 0 -10 -6 -10 -13 0 -7 -8 -22 -18 -33 -22 -25 -54
-74 -47 -74 2 0 -2 -8 -10 -17 -8 -10 -15 -22 -14 -27 0 -5 -3 -12 -8 -15 -14
-9 -73 -98 -73 -109 0 -6 -4 -12 -8 -14 -5 -1 -31 -37 -59 -78 -28 -41 -65
-93 -82 -115 -57 -73 -61 -79 -61 -88 0 -4 -4 -5 -10 -2 -5 3 -10 1 -10 -4 0
-6 -8 -19 -17 -30 -10 -10 -28 -31 -40 -47 -43 -55 -81 -94 -92 -94 -6 0 -11
-4 -11 -10 0 -5 -9 -19 -20 -30 -11 -11 -20 -18 -20 -16 0 2 -24 -18 -52 -45
-85 -78 -89 -82 -170 -134 -110 -71 -141 -89 -155 -86 -7 1 -13 -3 -13 -8 0
-8 -32 -24 -52 -26 -4 0 -16 -8 -27 -17 -11 -9 -21 -14 -24 -12 -5 5 -138 -37
-147 -46 -3 -3 -16 -5 -30 -5 -14 1 -30 -3 -37 -8 -6 -4 -40 -13 -75 -18 -35
-5 -74 -12 -88 -15 -14 -3 -52 -7 -85 -9 -33 -2 -62 -4 -65 -6 -3 -1 -9 -3
-15 -4 -33 -6 -45 -19 -45 -49 0 -48 9 -53 80 -49 96 4 110 6 110 14 0 3 32 9
71 12 39 3 76 10 82 15 7 5 27 8 45 7 17 0 32 4 32 9 0 5 3 6 7 3 3 -4 11 -3
17 2 6 5 26 12 45 14 19 3 37 9 40 14 3 4 15 9 26 11 25 3 33 6 70 22 17 7 46
20 65 28 19 8 37 14 39 13 2 -2 7 1 10 6 11 15 68 43 75 36 3 -3 6 -2 6 4 0 6
16 18 35 27 19 9 35 21 35 26 0 5 9 11 19 15 31 10 144 101 233 188 21 20 42
37 48 37 5 0 9 4 7 8 -2 7 42 59 116 135 15 16 27 30 27 33 0 4 34 46 58 70 6
7 12 15 12 18 0 5 47 70 91 126 11 14 28 37 37 53 9 15 20 27 24 27 4 0 8 5 8
10 0 6 20 41 43 78 119 182 157 243 157 248 0 3 16 29 35 58 19 29 35 58 35
65 0 6 3 11 8 11 4 0 25 34 47 75 22 41 43 75 47 75 5 0 8 4 8 10 0 13 91 163
104 172 6 4 7 8 2 8 -5 0 -1 9 9 20 10 11 15 20 11 20 -4 0 2 9 12 20 10 11
25 33 33 48 8 15 22 36 31 46 10 11 18 26 18 33 0 7 3 13 8 13 4 0 25 29 47
65 22 36 43 65 47 65 4 0 8 7 8 15 0 8 5 15 10 15 6 0 10 7 10 16 0 8 5 12 10
9 6 -3 10 1 10 9 0 9 3 16 8 16 4 0 25 25 47 55 22 30 46 54 52 55 7 0 12 6
10 13 -1 6 4 11 11 10 6 -2 12 2 12 8 0 15 39 49 110 97 30 20 61 43 68 50 12
10 17 10 30 0 9 -8 13 -8 9 -2 -4 8 6 14 31 19 20 4 42 10 47 15 6 4 40 0 77
-10 37 -9 70 -15 73 -12 3 3 5 0 5 -7 0 -7 5 -9 10 -6 6 3 10 3 10 -2 0 -4 22
-20 49 -36 57 -32 241 -209 241 -232 0 -4 29 -40 55 -69 6 -6 21 -28 34 -48
12 -21 28 -38 33 -38 6 0 9 -3 5 -6 -3 -4 5 -21 18 -39 14 -17 25 -35 25 -40
0 -4 11 -18 24 -30 14 -13 22 -25 19 -28 -3 -3 3 -15 13 -26 11 -11 30 -41 44
-68 14 -26 29 -51 34 -55 5 -3 11 -13 12 -22 1 -9 9 -22 17 -31 9 -8 19 -24
22 -35 3 -11 11 -20 16 -20 5 0 9 -5 9 -11 0 -6 29 -60 65 -120 36 -61 65
-114 65 -119 0 -6 4 -10 8 -10 5 0 19 -19 32 -42 12 -24 29 -50 36 -58 14 -17
22 -80 11 -97 -4 -6 -13 -39 -21 -74 -8 -35 -20 -82 -26 -104 -6 -22 -12 -44
-13 -50 -1 -5 -6 -16 -10 -22 -5 -7 -6 -13 -3 -13 3 0 1 -12 -5 -27 -6 -16
-12 -36 -14 -46 -7 -30 -27 -91 -40 -117 -7 -14 -10 -31 -8 -37 3 -7 1 -13 -4
-13 -6 0 -10 -7 -11 -15 -1 -8 -3 -22 -4 -30 -1 -8 -5 -15 -10 -15 -4 0 -8 -4
-8 -10 0 -5 -13 -39 -30 -75 -16 -36 -30 -68 -30 -71 0 -4 -42 -75 -75 -126
-49 -75 -67 -98 -73 -94 -4 2 -17 -9 -27 -25 -11 -16 -23 -29 -27 -29 -5 0
-17 -9 -28 -20 -11 -11 -20 -17 -20 -14 0 3 -13 -4 -29 -15 -16 -12 -37 -21
-48 -21 -46 -1 -79 -66 -49 -99 17 -18 66 -18 66 0 0 5 3 8 8 8 13 -3 72 23
72 31 0 4 11 11 25 14 14 4 23 11 20 16 -3 6 0 10 7 10 19 0 111 88 143 138
15 23 32 42 38 42 6 0 8 3 4 6 -3 4 6 25 22 48 29 44 45 76 43 88 -1 5 3 8 8
8 6 0 10 5 10 11 0 5 12 36 27 67 14 31 26 65 25 75 0 9 5 17 11 17 7 0 13 9
14 19 1 11 9 41 18 68 22 62 65 202 70 227 3 11 11 40 19 65 8 25 19 67 26 94
13 50 25 59 35 27 3 -11 11 -20 16 -20 5 0 9 -7 9 -15 0 -8 5 -15 10 -15 6 0
10 -6 10 -13 0 -12 10 -27 50 -74 6 -7 8 -13 5 -13 -4 0 30 -48 88 -124 12
-16 24 -34 26 -40 2 -6 18 -27 35 -47 73 -84 81 -106 50 -140 -8 -8 -14 -23
-14 -32 0 -9 -4 -17 -10 -17 -5 0 -10 -5 -10 -10 0 -16 -98 -168 -133 -208
-45 -50 -87 -91 -122 -117 -46 -35 -122 -75 -129 -68 -3 4 -6 2 -6 -4 0 -9
-57 -31 -99 -39 -31 -6 -58 -57 -43 -81 22 -32 54 -32 132 0 28 12 25 11 63
21 15 5 27 12 27 18 0 5 4 7 9 4 5 -3 14 1 21 9 7 8 16 12 21 9 5 -3 9 -1 9 5
0 5 16 19 35 31 40 24 141 120 165 155 67 99 112 169 141 222 19 34 39 61 44
61 6 0 10 -3 9 -6 0 -4 32 -39 73 -78 40 -40 73 -70 73 -68 0 2 13 -9 29 -24
50 -47 91 -80 91 -74 0 4 6 0 13 -9 7 -8 19 -18 27 -22 26 -12 54 -31 94 -64
7 -6 17 -9 20 -6 3 4 6 1 6 -6 0 -7 4 -9 10 -6 6 3 10 1 10 -5 0 -6 5 -8 10
-5 6 3 10 3 10 -2 0 -4 12 -14 28 -20 15 -7 54 -24 87 -39 33 -14 67 -27 75
-29 8 -2 31 -10 50 -18 38 -16 79 -8 81 15 1 7 2 20 3 28 2 21 -25 50 -47 50
-10 0 -28 5 -40 12 -12 7 -33 14 -46 16 -13 1 -30 10 -38 18 -8 7 -23 14 -34
14 -10 0 -19 5 -19 11 0 5 -4 7 -10 4 -5 -3 -10 -1 -10 6 0 7 -3 9 -6 6 -6 -6
-62 20 -74 34 -3 3 -24 16 -47 29 -24 13 -43 28 -43 32 0 5 -4 6 -10 3 -6 -3
-10 -2 -10 2 0 5 -14 17 -31 27 -40 24 -68 48 -197 174 -114 111 -108 97 -73
172 7 14 13 32 15 40 1 8 10 29 19 46 9 17 13 35 9 38 -3 4 -2 10 4 14 6 4 23
48 39 97 15 50 31 95 36 100 4 6 8 13 8 18 1 4 2 9 2 12 1 3 2 13 3 23 1 9 4
22 8 28 4 6 9 21 12 35 2 13 11 43 19 66 9 22 13 44 10 47 -3 3 -1 12 6 19 6
8 13 28 15 45 2 18 8 37 13 44 6 7 9 23 8 36 -1 12 2 22 7 22 5 0 7 4 3 9 -3
5 -1 12 5 16 6 4 8 10 5 15 -3 5 0 21 6 37 11 28 15 43 24 95 3 15 10 39 15
53 6 15 10 38 10 53 0 15 6 38 13 52 7 14 12 32 12 40 -1 8 3 26 8 40 5 14 11
36 13 50 6 36 12 65 15 65 1 0 3 9 4 20 1 12 7 36 13 55 5 19 16 63 22 98 7
34 15 62 19 62 3 0 7 15 7 33 2 33 6 55 15 72 3 6 4 20 3 33 0 12 3 22 8 22 5
0 8 8 7 18 -1 9 0 19 1 22 2 6 9 41 13 70 2 11 6 23 10 26 4 4 7 19 7 34 0 15
4 40 10 56 5 16 11 43 13 60 3 17 9 40 14 50 5 11 9 31 8 47 0 15 3 27 7 27 4
0 7 3 6 8 -2 10 12 80 23 119 6 17 12 44 15 59 4 24 26 117 40 169 3 11 7 35
9 53 2 19 8 39 13 45 5 7 8 20 7 30 -2 9 1 17 6 17 5 0 9 -9 9 -20 0 -11 1
-22 2 -25 9 -30 49 -277 51 -322 1 -24 5 -43 10 -43 4 0 6 -3 6 -7 -1 -5 -1
-10 0 -13 4 -9 13 -94 15 -130 0 -19 4 -37 8 -40 4 -3 10 -24 12 -45 3 -22 9
-67 15 -100 6 -33 13 -80 16 -104 3 -24 8 -48 11 -53 4 -5 8 -26 9 -46 2 -20
6 -50 10 -67 3 -16 7 -51 9 -77 2 -26 7 -52 11 -58 3 -5 8 -20 10 -33 20 -113
27 -157 30 -189 1 -20 6 -42 10 -49 5 -6 10 -30 12 -52 2 -23 6 -52 9 -66 3
-14 6 -32 6 -38 1 -7 4 -13 7 -13 3 0 7 -10 7 -22 1 -13 5 -39 8 -58 4 -19 9
-51 12 -70 2 -19 7 -42 11 -50 6 -14 28 -124 37 -181 2 -14 8 -35 15 -46 6
-12 8 -29 5 -37 -3 -9 -2 -16 4 -16 5 0 8 -10 8 -22 -1 -13 1 -27 5 -33 4 -5
8 -13 8 -17 1 -5 1 -9 2 -10 1 -4 10 -48 13 -65 1 -7 5 -16 9 -19 4 -4 7 -18
7 -31 0 -13 4 -31 9 -41 5 -9 14 -39 21 -67 6 -27 13 -57 15 -65 3 -8 11 -34
20 -58 8 -24 17 -51 18 -60 2 -9 8 -26 15 -38 6 -11 13 -33 16 -48 3 -15 10
-34 16 -41 7 -8 9 -19 5 -25 -3 -5 -2 -10 4 -10 6 0 15 -18 21 -40 6 -21 14
-42 19 -44 5 -3 12 -18 16 -33 6 -27 91 -175 119 -209 8 -11 31 -39 50 -62 20
-24 36 -41 36 -37 0 3 10 -5 23 -18 21 -23 105 -81 118 -82 3 0 21 -9 41 -19
42 -23 83 -16 91 16 8 30 -7 53 -45 68 -18 7 -41 20 -50 28 -10 8 -18 12 -18
8 0 -4 -20 7 -45 24 -25 17 -45 35 -45 40 0 5 -9 12 -20 15 -11 3 -20 12 -20
20 0 7 -7 15 -15 19 -8 3 -15 12 -15 21 0 8 -3 15 -7 15 -5 0 -19 17 -33 38
-14 20 -28 40 -33 43 -4 3 -10 16 -12 29 -2 13 -8 26 -12 29 -8 6 -45 79 -48
96 -2 6 -12 30 -24 55 -25 55 -61 155 -68 193 -3 15 -8 27 -12 27 -4 0 -8 12
-9 26 -1 14 -5 31 -9 37 -5 7 -13 35 -19 62 -6 28 -20 82 -31 122 -11 40 -18
75 -15 78 3 3 1 5 -5 5 -5 0 -10 6 -11 13 0 6 -3 23 -6 37 -3 14 -13 57 -22
95 -21 94 -45 205 -49 230 -2 11 -6 31 -10 45 -16 73 -18 87 -18 113 0 15 -4
27 -8 27 -5 0 -8 3 -8 8 1 4 0 9 -1 12 -1 3 -3 19 -5 35 -3 32 -19 119 -35
195 -6 25 -12 61 -15 80 -2 19 -7 49 -11 65 -4 17 -7 47 -8 67 -1 21 -5 38
-10 38 -4 0 -6 7 -3 15 4 8 2 17 -4 20 -5 4 -9 18 -9 33 1 38 -7 99 -15 112
-4 6 -8 28 -10 48 -5 57 -27 205 -33 222 -10 28 -12 45 -13 80 -1 19 -4 40 -7
45 -4 6 -8 21 -9 35 -5 56 -12 103 -19 123 -4 12 -8 38 -10 57 -1 19 -7 64
-14 100 -7 36 -14 79 -16 95 -4 32 -12 70 -14 70 -1 0 -3 20 -6 45 -4 46 -6
55 -17 100 -12 48 -16 140 -6 145 5 4 7 11 3 16 -3 5 -1 15 4 22 6 7 12 24 14
37 2 14 7 30 10 36 4 6 9 22 12 37 6 33 28 99 37 112 5 6 10 22 12 36 3 13 14
41 26 62 12 21 21 42 21 47 0 27 105 159 125 157 17 -1 96 -87 90 -98 -4 -5
-2 -9 3 -9 8 0 42 -68 46 -90 1 -3 6 -12 11 -20 11 -18 53 -134 61 -169 3 -13
9 -32 14 -42 6 -10 10 -27 10 -38 0 -12 5 -21 11 -21 6 0 9 -9 6 -20 -3 -11
-1 -23 5 -26 5 -3 7 -12 4 -20 -3 -7 -1 -16 3 -19 10 -6 46 -144 43 -162 -2
-7 2 -13 8 -13 6 0 8 -4 5 -10 -3 -5 -3 -16 2 -22 4 -7 9 -22 11 -33 2 -11 5
-25 6 -32 1 -7 5 -16 9 -19 4 -4 7 -16 7 -27 0 -12 4 -34 9 -51 11 -37 33
-133 37 -161 1 -11 9 -40 17 -65 7 -25 13 -54 11 -63 -1 -9 2 -17 6 -17 5 0 7
-9 5 -20 -2 -11 0 -20 4 -20 4 0 8 -6 8 -12 2 -24 10 -73 16 -88 2 -8 10 -42
17 -75 6 -33 18 -85 26 -117 8 -31 13 -60 12 -65 -1 -4 3 -17 9 -28 5 -11 9
-30 8 -42 -1 -13 3 -23 8 -23 5 0 7 -8 4 -19 -2 -10 -1 -25 4 -33 4 -8 11 -28
13 -44 7 -34 31 -142 44 -196 6 -21 8 -38 6 -38 -3 0 0 -8 5 -19 6 -10 12 -36
15 -57 2 -21 5 -40 7 -41 1 -2 2 -6 4 -10 1 -5 5 -16 9 -26 5 -9 6 -26 3 -37
-3 -11 -2 -20 3 -20 7 0 24 -56 22 -72 -1 -4 5 -25 13 -48 8 -23 13 -46 10
-50 -3 -5 -1 -11 5 -15 6 -4 8 -11 4 -16 -3 -5 -1 -15 4 -22 6 -7 11 -25 13
-42 2 -16 7 -36 12 -42 5 -7 7 -20 3 -28 -3 -8 0 -15 6 -15 6 0 9 -3 5 -6 -3
-3 -2 -18 3 -32 5 -15 16 -54 25 -87 10 -33 24 -82 32 -108 8 -26 16 -53 17
-60 2 -7 5 -19 8 -27 23 -64 72 -226 70 -232 -1 -5 3 -8 10 -8 6 0 9 -3 5 -6
-3 -4 0 -19 9 -35 8 -16 14 -32 14 -36 0 -11 59 -162 75 -193 7 -14 32 -63 55
-110 52 -106 90 -173 113 -197 9 -11 17 -24 17 -29 0 -5 9 -16 20 -24 11 -8
20 -20 20 -27 0 -7 4 -13 8 -13 5 0 15 -11 22 -25 7 -13 16 -23 19 -22 4 1 21
-12 38 -30 17 -17 34 -29 37 -26 3 4 6 2 6 -4 0 -6 18 -22 40 -37 22 -14 40
-23 40 -19 0 4 6 0 13 -9 6 -8 28 -21 47 -28 19 -7 49 -19 67 -26 17 -8 37
-14 45 -14 8 0 18 -3 22 -7 22 -22 77 17 71 49 -5 23 -25 51 -33 44 -2 -3 -11
1 -19 9 -8 8 -26 15 -41 15 -15 0 -36 7 -46 15 -10 8 -23 12 -27 9 -5 -3 -9
-1 -9 3 0 5 -16 15 -35 22 -19 7 -35 17 -35 22 0 5 -6 9 -13 9 -14 0 -142 122
-167 160 -8 12 -23 31 -32 42 -10 11 -20 29 -23 39 -4 11 -11 19 -16 19 -6 0
-7 5 -4 10 3 6 3 10 -2 10 -4 0 -13 10 -19 23 -6 12 -24 47 -40 77 -15 30 -28
57 -29 60 0 3 -11 25 -23 49 -12 25 -22 48 -22 52 0 3 -8 24 -17 45 -9 22 -16
42 -15 47 1 4 -3 7 -8 7 -6 0 -10 10 -10 23 0 13 -5 28 -12 35 -7 7 -8 12 -4
12 5 0 3 7 -4 15 -7 8 -9 15 -6 15 4 0 0 12 -8 28 -14 26 -29 74 -31 98 0 6
-6 18 -12 25 -6 8 -14 28 -17 44 -2 17 -5 31 -6 33 -2 1 -4 7 -5 12 -1 6 -3
11 -5 13 -1 1 -4 15 -6 30 -3 15 -10 40 -16 55 -6 15 -12 32 -13 37 -5 20 -34
121 -43 153 -6 17 -8 32 -5 32 3 0 0 6 -6 13 -6 8 -8 17 -4 20 3 4 2 12 -4 19
-5 7 -9 20 -8 28 1 8 -3 24 -8 35 -6 11 -11 29 -13 40 -1 11 -14 66 -28 123
-14 56 -26 112 -26 122 0 11 -3 20 -7 20 -5 0 -9 19 -11 42 -1 23 -7 47 -11
52 -5 6 -11 29 -13 52 -3 23 -8 45 -11 51 -3 5 -8 23 -11 39 -7 39 -27 126
-34 144 -7 22 -12 51 -15 88 -1 17 -5 32 -9 32 -5 0 -7 3 -7 8 1 4 0 9 -1 12
-2 3 -4 19 -5 35 -1 17 -5 37 -8 45 -6 14 -54 224 -61 265 -2 11 -5 21 -6 23
-1 1 -4 11 -5 22 -1 11 -3 21 -5 23 -3 3 -8 28 -16 67 -9 52 -12 65 -14 65 -1
0 -4 14 -6 30 -3 17 -10 46 -16 65 -6 19 -13 44 -14 55 -1 11 -7 38 -12 59 -6
22 -9 44 -6 48 3 4 0 8 -6 8 -7 0 -10 6 -7 14 3 7 2 17 -3 22 -5 5 -10 23 -12
39 -1 17 -6 32 -9 35 -4 3 -10 21 -13 40 -3 19 -17 76 -31 125 -13 50 -24 90
-24 90 1 0 -10 35 -20 65 -7 19 -14 42 -16 50 -2 8 -13 42 -25 75 -11 33 -22
65 -23 70 -1 6 -6 16 -10 23 -5 6 -5 12 0 12 4 0 0 5 -10 11 -9 6 -15 14 -12
19 10 16 -102 207 -128 218 -4 2 -13 9 -20 16 -28 27 -90 40 -114 22 -7 -4
-13 -5 -13 -2 0 16 -72 -44 -100 -82 -17 -23 -28 -42 -25 -42 4 0 -5 -15 -18
-32 -14 -18 -28 -44 -32 -57 -4 -13 -14 -40 -23 -60 -9 -20 -16 -38 -17 -41 0
-3 -9 -27 -19 -55 -10 -27 -20 -57 -23 -65 -6 -19 -24 22 -28 65 -1 17 -4 30
-5 30 -1 0 -3 11 -4 25 -2 14 -6 39 -11 55 -9 34 -16 76 -18 118 -1 15 -5 27
-9 27 -5 0 -8 13 -8 29 0 16 -4 40 -9 53 -5 13 -11 42 -15 66 -3 24 -8 47 -11
51 -2 5 -7 23 -9 42 -6 38 -14 74 -16 74 -2 0 -4 9 -13 55 -3 14 -10 39 -15
55 -5 17 -15 50 -22 75 -40 142 -114 300 -141 300 -5 0 -9 7 -9 15 0 8 -6 15
-12 16 -7 0 -27 2 -44 3 -17 1 -40 -2 -52 -7z m108 -169 c0 -10 5 -18 10 -18
6 0 10 -13 10 -28 0 -15 5 -33 10 -38 10 -10 50 -134 52 -161 1 -7 4 -13 8
-13 3 0 6 -10 7 -22 1 -13 4 -34 8 -48 3 -14 8 -36 11 -50 3 -14 9 -38 14 -55
13 -41 34 -148 31 -159 -1 -4 3 -22 9 -40 5 -17 12 -46 15 -63 3 -18 8 -48 11
-65 3 -18 6 -39 7 -45 0 -7 3 -13 7 -13 4 0 7 -15 7 -32 0 -18 3 -44 7 -58 4
-14 10 -47 13 -75 3 -27 9 -58 14 -67 5 -9 9 -35 9 -57 0 -22 3 -42 8 -44 8
-5 8 -53 -1 -77 -2 -8 -15 -60 -28 -115 -13 -55 -26 -102 -29 -105 -3 -3 -5
-12 -5 -20 1 -8 -3 -20 -8 -27 -5 -7 -6 -17 -2 -23 3 -5 2 -10 -3 -10 -5 0 -8
-10 -7 -22 1 -13 -2 -28 -7 -35 -5 -7 -7 -17 -4 -22 4 -5 3 -12 -2 -15 -5 -3
-14 -41 -22 -85 -7 -45 -16 -81 -20 -81 -4 0 -7 -6 -8 -12 -2 -28 -10 -83 -12
-83 -2 0 -11 -37 -15 -65 -1 -14 -4 -25 -5 -25 -2 0 -4 -9 -5 -20 -2 -11 -8
-35 -14 -52 -7 -24 -7 -33 2 -33 9 0 9 -2 1 -8 -11 -7 -46 -132 -45 -164 0
-10 -3 -18 -7 -18 -4 0 -8 -10 -9 -22 -2 -30 -10 -73 -13 -73 -1 0 -3 -9 -5
-20 -1 -11 -6 -33 -9 -50 -4 -16 -10 -46 -13 -65 -3 -19 -9 -42 -14 -51 -4 -8
-10 -36 -13 -61 -3 -26 -10 -58 -16 -73 -5 -14 -9 -29 -8 -33 1 -4 -2 -16 -8
-27 -6 -11 -10 -32 -9 -47 0 -16 -3 -28 -8 -28 -5 0 -7 -7 -4 -15 4 -8 2 -17
-4 -20 -5 -4 -7 -10 -4 -15 3 -5 1 -11 -5 -15 -6 -4 -8 -10 -6 -13 2 -4 -5
-43 -16 -87 -11 -44 -22 -95 -25 -112 -3 -18 -9 -33 -14 -33 -4 0 -6 -9 -4
-20 2 -11 1 -20 -4 -20 -4 0 -8 -10 -8 -22 -1 -21 -10 -63 -13 -63 -1 0 -49
-174 -56 -204 -3 -14 -8 -29 -12 -35 -3 -6 -8 -20 -10 -31 -5 -28 -8 -36 -19
-65 -6 -14 -9 -33 -7 -42 1 -10 -1 -18 -6 -18 -5 0 -16 -26 -25 -57 -8 -32
-21 -69 -27 -83 -6 -14 -12 -32 -12 -40 0 -8 -3 -17 -6 -20 -4 -3 -18 -36 -32
-74 -20 -54 -27 -66 -36 -55 -10 12 -28 34 -104 128 -10 11 -14 21 -10 21 4 0
-1 5 -10 11 -10 5 -18 17 -18 24 0 8 -4 15 -10 15 -5 0 -10 5 -10 10 0 6 -16
32 -35 58 -20 26 -35 51 -34 56 0 5 -6 13 -15 18 -9 5 -16 16 -16 23 0 8 -4
15 -8 15 -5 0 -15 12 -22 28 -8 15 -21 35 -29 45 -8 9 -11 17 -7 17 4 0 1 7
-8 15 -13 14 -13 20 -1 55 8 23 10 40 4 40 -5 0 -2 11 7 25 9 14 14 31 11 39
-3 7 0 19 6 25 6 6 8 11 5 11 -4 0 -2 15 3 33 5 17 12 46 14 62 5 27 10 53 30
160 8 38 13 60 15 60 1 0 3 14 5 30 1 17 6 46 10 65 4 19 8 45 8 58 1 12 3 22
7 22 3 0 6 10 7 23 1 12 9 63 18 112 8 50 18 110 21 135 3 25 10 50 15 56 4 5
6 22 3 37 -2 15 -1 27 3 27 5 0 8 15 7 33 0 17 3 40 8 49 4 9 10 34 12 55 8
77 29 209 39 248 6 22 10 52 9 68 -1 15 1 27 5 27 5 0 9 12 9 28 1 15 5 52 9
82 4 30 7 61 8 68 0 6 3 12 7 12 4 0 7 15 8 33 1 42 8 98 15 117 3 8 8 35 11
60 8 71 17 124 23 140 3 8 5 28 4 43 -2 15 5 39 13 53 10 14 12 24 6 24 -6 0
-8 5 -3 13 4 6 8 26 8 42 0 17 4 36 8 43 5 6 5 17 2 22 -4 6 -2 17 4 24 6 8
11 27 9 43 -1 16 1 33 4 39 6 9 32 156 44 244 3 19 8 36 12 38 4 1 7 18 6 37
-1 19 2 35 7 35 5 0 7 11 5 24 -2 13 -2 27 2 30 6 7 11 26 16 67 2 15 6 31 9
35 2 5 8 31 11 58 4 27 14 74 22 105 8 31 17 67 20 81 2 14 7 32 11 40 8 20
11 30 18 62 17 85 100 272 116 262 5 -3 9 3 9 13 1 24 70 -55 70 -79z"/>
</g>
</svg>
